HIERARCHY
ROOT Hips
{
 OFFSET 0.000000 0.000000 0.000000
 CHANNELS 6 Xposition Yposition Zposition Yrotation Xrotation Zrotation
 JOINT Chest
 {
  OFFSET 0.000000 12.953391 -0.028419
  CHANNELS 3 Yrotation Xrotation Zrotation
  JOINT Chest2
  {
   OFFSET 0.000000 10.280254 0.051622
   CHANNELS 3 Yrotation Xrotation Zrotation
   JOINT Chest3
   {
    OFFSET 0.000000 9.287180 0.000000
    CHANNELS 3 Yrotation Xrotation Zrotation
    JOINT Chest4
    {
     OFFSET 0.000000 9.287180 0.000000
     CHANNELS 3 Yrotation Xrotation Zrotation
     JOINT Neck
     {
      OFFSET 0.000000 13.296264 0.000000
      CHANNELS 3 Yrotation Xrotation Zrotation
      JOINT Head
      {
       OFFSET 0.000000 8.959264 0.099003
       CHANNELS 3 Yrotation Xrotation Zrotation
       End Site
       {
        OFFSET 0.000000 17.121337 0.039303
       }
      }
     }
     JOINT RightCollar
     {
      OFFSET -3.193511 7.451388 0.000000
      CHANNELS 3 Yrotation Xrotation Zrotation
      JOINT RightShoulder
      {
       OFFSET -15.792092 0.000000 0.000000
       CHANNELS 3 Yrotation Xrotation Zrotation
       JOINT RightElbow
       {
        OFFSET -31.151839 0.000000 0.000000
        CHANNELS 3 Yrotation Xrotation Zrotation
        JOINT RightWrist
        {
         OFFSET -25.536298 0.000000 0.002321
         CHANNELS 3 Yrotation Xrotation Zrotation
         End Site
         {
          OFFSET -19.133213 0.000000 0.000000
         }
        }
       }
      }
     }
     JOINT LeftCollar
     {
      OFFSET 3.193511 7.451388 0.000000
      CHANNELS 3 Yrotation Xrotation Zrotation
      JOINT LeftShoulder
      {
       OFFSET 15.792092 0.000000 0.000000
       CHANNELS 3 Yrotation Xrotation Zrotation
       JOINT LeftElbow
       {
        OFFSET 31.151839 0.000000 0.000000
        CHANNELS 3 Yrotation Xrotation Zrotation
        JOINT LeftWrist
        {
         OFFSET 25.536298 0.000000 0.002321
         CHANNELS 3 Yrotation Xrotation Zrotation
         End Site
         {
          OFFSET 19.133213 0.000000 0.000000
         }
        }
       }
      }
     }
    }
   }
  }
 }
 JOINT RightHip
 {
  OFFSET -10.745749 0.139252 0.014209
  CHANNELS 3 Yrotation Xrotation Zrotation
  JOINT RightKnee
  {
   OFFSET 0.000000 -43.743899 -0.006071
   CHANNELS 3 Yrotation Xrotation Zrotation
   JOINT RightAnkle
   {
    OFFSET 0.000000 -43.214199 0.089931
    CHANNELS 3 Yrotation Xrotation Zrotation
    JOINT RightToe
    {
     OFFSET 0.000000 -9.699830 19.151588
     CHANNELS 3 Yrotation Xrotation Zrotation
     End Site
     {
      OFFSET 0.000000 -1.292898 4.893873
     }
    }
   }
  }
 }
 JOINT LeftHip
 {
  OFFSET 10.745749 0.139252 0.014209
  CHANNELS 3 Yrotation Xrotation Zrotation
  JOINT LeftKnee
  {
   OFFSET 0.000000 -43.743899 -0.006071
   CHANNELS 3 Yrotation Xrotation Zrotation
   JOINT LeftAnkle
   {
    OFFSET 0.000000 -43.214199 0.089931
    CHANNELS 3 Yrotation Xrotation Zrotation
    JOINT LeftToe
    {
     OFFSET 0.000000 -9.699830 19.151588
     CHANNELS 3 Yrotation Xrotation Zrotation
     End Site
     {
      OFFSET 0.000000 -1.292898 4.893873
     }
    }
   }
  }
 }
}
MOTION
Frames: 8
Frame Time: 0.016667
-209.585479	-453.653069	-120.443832	144.462088	-5.067693	50.557923	2.521792	8.771301	-4.692952	7.647019	12.757725	-3.969632	10.015789	18.942319	-4.030921	10.454641	21.484071	-4.591830	16.781829	49.991968	-9.700635	47.574864	68.035615	0.662423	14.496946	19.436322	0.409509	17.976122	-12.549683	41.840015	13.228613	3.452878	28.073645	24.009860	10.760996	33.818449	7.501058	7.805707	-11.959851	12.997722	-3.224976	-48.216817	25.280979	-0.270920	-40.114456	42.903355	3.406387	-39.814165	-8.304693	-11.354099	-1.278097	-10.495454	26.802927	-0.618371	1.113000	40.309149	7.410193	0.767066	28.740842	5.190913	-4.971114	-7.733344	-2.115009	-10.403034	19.318743	-0.075016	-36.558375	23.083083	-9.286504	-34.571001	11.653086	-4.831655
-210.642258	-453.987261	-120.007960	142.102268	-4.039357	50.485381	2.699968	9.094645	-3.247727	6.988613	12.507610	-2.471871	9.266990	18.339689	-2.201644	10.305741	21.340915	-2.250382	15.716072	49.663240	-5.924271	39.393607	68.528332	1.536246	14.528109	19.250864	3.040976	15.925104	-10.456826	46.586942	11.546668	4.407374	33.141468	24.326272	8.444290	38.235165	7.728298	8.356367	-8.979551	10.932626	-3.858915	-41.484591	23.545992	-0.529074	-32.602916	41.944256	1.053298	-33.487362	-8.644823	-10.518635	-0.661352	-9.847265	30.725928	-0.706070	4.146742	42.514855	9.159549	2.794476	30.741762	7.536750	-4.482294	-10.263502	-2.421602	-9.254641	17.093087	-0.445414	-34.631692	20.610083	-6.950449	-33.374272	11.354525	-3.464283
-211.610492	-454.454628	-119.642260	139.796639	-3.031557	50.509045	2.666448	9.200323	-3.331306	6.961238	12.703702	-2.639995	9.244540	18.723741	-2.451504	10.185193	21.762873	-2.527593	15.372970	49.865269	-6.650466	39.349041	68.584496	0.214265	14.563180	19.281637	2.863724	15.928479	-10.018089	45.891854	11.255127	4.647979	32.552982	23.840846	8.883199	37.423042	7.691371	8.356547	-9.239461	10.950397	-3.538331	-41.700876	23.171078	-0.072347	-32.847477	41.269249	1.359864	-33.482094	-8.491733	-10.404013	-0.820864	-9.987613	31.778457	-0.931680	3.672770	44.054784	8.460621	2.186935	31.733257	6.867728	-4.137362	-10.756469	-2.696068	-9.110895	15.994302	-0.656350	-34.383371	19.927720	-7.000144	-33.009848	11.099969	-3.771052
-212.615023	-454.916968	-119.285020	137.481522	-2.170560	50.527978	2.562287	9.246054	-3.264531	6.808291	12.783903	-2.585920	9.042683	18.919526	-2.414949	9.912363	22.032686	-2.408865	14.759283	50.011166	-6.622451	37.701590	68.872805	-0.521845	14.552783	19.254580	3.173706	15.366992	-9.446540	46.158029	10.568312	4.925635	33.071014	23.433455	8.983322	38.048421	7.604545	8.474339	-9.066917	10.376818	-3.475862	-41.241487	22.506580	0.075789	-32.376755	40.548652	1.277793	-32.943936	-8.247363	-10.343808	-0.780298	-9.822941	32.480768	-0.896099	4.091722	45.265029	8.516984	2.272961	32.497048	6.714626	-3.792739	-11.167016	-2.843622	-8.854713	14.867682	-0.792869	-34.199356	19.255620	-6.997474	-32.724029	10.768181	-3.945301
-213.656127	-455.371002	-118.931302	135.156203	-1.429897	50.548726	2.485084	9.319879	-3.216247	6.668899	12.889213	-2.574918	8.860645	19.136426	-2.433717	9.688952	22.341260	-2.349026	14.226690	50.165525	-6.707948	36.333538	69.153661	-1.326153	14.558454	19.217541	3.395073	14.896624	-8.909124	46.287241	9.963697	5.177220	33.424330	23.008705	9.106999	38.483839	7.542842	8.587583	-8.952440	9.862552	-3.390329	-40.869206	21.889175	0.287413	-31.987484	39.824689	1.245080	-32.502209	-8.044948	-10.326201	-0.754212	-9.717825	33.183064	-0.907988	4.305742	46.441196	8.419246	2.172783	33.265391	6.433641	-3.447964	-11.512664	-3.005241	-8.605695	13.833988	-0.980195	-34.001824	18.621685	-6.982451	-32.444181	10.446235	-4.109050
-214.734952	-455.804807	-118.581127	132.828710	-0.816933	50.585801	2.414364	9.402734	-3.149389	6.516496	12.994099	-2.547828	8.666221	19.342519	-2.432537	9.473719	22.653106	-2.254820	13.683720	50.319267	-6.744266	34.794485	69.466261	-2.135912	14.575901	19.177951	3.647333	14.420207	-8.357219	46.467676	9.366457	5.427221	33.832690	22.609031	9.188170	38.992359	7.491666	8.721517	-8.799395	9.314037	-3.304992	-40.432261	21.280971	0.496402	-31.519620	39.115758	1.190664	-32.016995	-7.846600	-10.323282	-0.721206	-9.604457	33.879650	-0.924437	4.542959	47.588649	8.337260	2.077192	34.024484	6.153178	-3.100892	-11.837138	-3.172053	-8.349402	12.823756	-1.192686	-33.807595	17.975250	-6.959898	-32.185541	10.113166	-4.262259
-215.851420	-456.213274	-118.235261	130.500760	-0.330502	50.650282	2.351852	9.490227	-3.080871	6.367253	13.094501	-2.518384	8.481375	19.540628	-2.426112	9.280456	22.965444	-2.147329	13.157467	50.464170	-6.764848	33.188940	69.783462	-2.961483	14.602955	19.138887	3.898788	13.974527	-7.808561	46.645933	8.807759	5.669462	34.232980	22.270824	9.239443	39.500592	7.457386	8.862243	-8.639590	8.773551	-3.207690	-39.996767	20.713375	0.714259	-31.048320	38.456966	1.155357	-31.541475	-7.658081	-10.328761	-0.688904	-9.502882	34.585816	-0.951809	4.753821	48.738188	8.242956	1.950824	34.787891	5.850061	-2.757729	-12.134571	-3.348742	-8.096562	11.836999	-1.421906	-33.634708	17.325144	-6.936862	-31.953512	9.775978	-4.415849
-217.004008	-456.592229	-117.895787	128.171046	0.033745	50.750359	2.295436	9.580199	-3.017665	6.224510	13.191193	-2.493733	8.306392	19.736661	-2.424228	9.104877	23.280622	-2.040065	12.650363	50.603777	-6.786016	31.555775	70.103388	-3.808147	14.633552	19.099911	4.138579	13.553187	-7.270534	46.803107	8.279363	5.905854	34.612258	21.976892	9.279258	39.997794	7.433424	9.004779	-8.483478	8.236085	-3.100781	-39.581006	20.175612	0.941261	-30.597209	37.835977	1.145570	-31.092806	-7.472784	-10.339018	-0.659323	-9.403996	35.289073	-0.981745	4.953351	49.891677	8.150144	1.807570	35.546025	5.529397	-2.419002	-12.410431	-3.528578	-7.847133	10.866167	-1.657502	-33.484416	16.679141	-6.918970	-31.744753	9.433974	-4.577252
